<svg width="469" height="381" viewBox="0 0 469 381" fill="none" xmlns="http://www.w3.org/2000/svg">
<path opacity="0.03" d="M468.446 380.999C468.446 330.967 458.592 281.425 439.445 235.202C420.299 188.978 392.235 146.978 356.857 111.6C321.479 76.2225 279.48 48.1591 233.256 29.0127C187.033 9.86625 137.49 0.0117166 87.4584 0.0117188C37.4264 0.0117209 -12.1157 9.86626 -58.3393 29.0127C-104.563 48.1591 -146.563 76.2225 -181.941 111.6C-217.319 146.978 -245.382 188.978 -264.528 235.202C-283.675 281.425 -293.529 330.967 -293.529 381L-26.8379 380.999C-26.8379 365.99 -23.8815 351.127 -18.1376 337.26C-12.3936 323.393 -3.97464 310.793 6.63873 300.18C17.2521 289.566 29.8521 281.147 43.7191 275.403C57.5862 269.66 72.4489 266.703 87.4585 266.703C102.468 266.703 117.331 269.66 131.198 275.403C145.065 281.147 157.665 289.566 168.278 300.18C178.892 310.793 187.311 323.393 193.055 337.26C198.798 351.127 201.755 365.99 201.755 380.999H468.446Z" fill="#131742"/>
</svg>
