<svg width="854" height="571" viewBox="0 0 854 571" fill="none" xmlns="http://www.w3.org/2000/svg">
<path opacity="0.02" d="M1139.81 570.113C1139.81 495.285 1125.07 421.19 1096.44 352.058C1067.8 282.926 1025.83 220.111 972.92 167.199C920.008 114.288 857.193 72.316 788.061 43.6806C718.929 15.0451 644.834 0.306637 570.006 0.306641C495.178 0.306644 421.082 15.0451 351.95 43.6806C282.818 72.3161 220.003 114.288 167.092 167.199C114.18 220.111 72.2086 282.926 43.5731 352.058C14.9377 421.19 0.199212 495.285 0.199219 570.113H214.363C214.363 523.409 223.562 477.163 241.434 434.014C259.307 390.866 285.504 351.66 318.528 318.636C351.553 285.611 390.758 259.415 433.907 241.542C477.056 223.669 523.302 214.47 570.006 214.47C616.709 214.47 662.956 223.669 706.104 241.542C749.253 259.415 788.459 285.611 821.483 318.636C854.508 351.66 880.704 390.866 898.577 434.014C916.45 477.163 925.649 523.409 925.649 570.113H1139.81Z" fill="#131742"/>
</svg>
